<svg xmlns="http://www.w3.org/2000/svg" width="480" height="352" viewBox="0 0 480 352">


<rect x="0" y="0" width="480" height="112" fill="#F4F1EA"></rect>

<g transform="translate(24,24)">
  <rect x="0" y="0" width="64" height="64" rx="9" fill="#002147"></rect>
  <rect x="29" y="0" width="6" height="12" fill="#C60000"></rect>
  <text x="32" y="47" text-anchor="middle" font-size="38" font-weight="600" fill="#F4F1EA">A</text>
  <text x="84" y="36" font-size="26" font-weight="700" letter-spacing="-0.5" fill="#002147">Askloutos Letter</text>
  <text x="342" y="36" font-size="26" font-weight="700" fill="#C60000">_</text>
  <text x="85" y="58" font-size="10" font-weight="500" letter-spacing="3" fill="#708090">LONGEVITY &amp; ECONOMIC HISTORY</text>
</g>

<rect x="0" y="112" width="480" height="112" fill="#0F1419"></rect>

<g transform="translate(24,136)">
  <rect x="0" y="0" width="64" height="64" rx="9" fill="#F4F1EA"></rect>
  <rect x="29" y="0" width="6" height="12" fill="#C60000"></rect>
  <text x="32" y="47" text-anchor="middle" font-size="38" font-weight="600" fill="#002147">A</text>
  <text x="84" y="36" font-size="26" font-weight="700" letter-spacing="-0.5" fill="#F4F1EA">Askloutos Letter</text>
  <text x="342" y="36" font-size="26" font-weight="700" fill="#C60000">_</text>
  <text x="85" y="58" font-size="10" font-weight="500" letter-spacing="3" fill="#8B98A5">LONGEVITY &amp; ECONOMIC HISTORY</text>
</g>

<rect x="0" y="224" width="480" height="112" fill="#FFFFFF"></rect>

<g transform="translate(24,248)">
  <rect x="0" y="0" width="64" height="64" rx="9" fill="#002147"></rect>
  <rect x="29" y="0" width="6" height="12" fill="#002147"></rect>
  <text x="32" y="47" text-anchor="middle" font-size="38" font-weight="600" fill="#FFFFFF">A</text>
  <text x="84" y="36" font-size="26" font-weight="700" letter-spacing="-0.5" fill="#002147">Askloutos Letter</text>
  <text x="342" y="36" font-size="26" font-weight="700" fill="#002147">_</text>
  <text x="85" y="58" font-size="10" font-weight="500" letter-spacing="3" fill="#002147">LONGEVITY &amp; ECONOMIC HISTORY</text>
</g>
</svg>